<?xml version="1.0" encoding="iso-8859-1"?>
<!-- Uploaded to: SVG Repo, www.svgrepo.com, Generator: SVG Repo Mixer Tools -->
<svg height="800px" width="800px" version="1.1" id="Layer_1" xmlns="http://www.w3.org/2000/svg" xmlns:xlink="http://www.w3.org/1999/xlink" 
	 viewBox="0 0 511.999 511.999" xml:space="preserve">
<g>
	<polygon style="fill:#FFD6A4;" points="25.6,465.066 486.4,465.066 486.4,345.599 25.6,345.599 	"/>
	<polygon style="fill:#FFD6A4;" points="25.6,311.466 486.4,311.466 486.4,191.999 25.6,191.999 	"/>
	<path style="fill:#FFD6A4;" d="M341.333,157.867H25.6V46.932c0-5.12,3.413-8.533,8.533-8.533h258.56c3.413,0,6.827,2.56,7.68,5.973
		L341.333,157.867z"/>
</g>
<g>
	<path style="fill:#D8A887;" d="M85.333,379.732L85.333,379.732c-14.507,0-25.6,11.093-25.6,25.6v59.733h51.2v-59.733
		C110.933,390.826,99.84,379.732,85.333,379.732"/>
	<path style="fill:#D8A887;" d="M170.667,379.732L170.667,379.732c-14.507,0-25.6,11.093-25.6,25.6v59.733h51.2v-59.733
		C196.267,390.826,185.173,379.732,170.667,379.732"/>
	<path style="fill:#D8A887;" d="M256,379.732L256,379.732c-14.507,0-25.6,11.093-25.6,25.6v59.733h51.2v-59.733
		C281.6,390.826,270.507,379.732,256,379.732"/>
	<path style="fill:#D8A887;" d="M341.333,379.732L341.333,379.732c-14.507,0-25.6,11.093-25.6,25.6v59.733h51.2v-59.733
		C366.933,390.826,355.84,379.732,341.333,379.732"/>
	<path style="fill:#D8A887;" d="M426.667,379.732L426.667,379.732c-14.507,0-25.6,11.093-25.6,25.6v59.733h51.2v-59.733
		C452.267,390.826,441.173,379.732,426.667,379.732"/>
	<path style="fill:#D8A887;" d="M85.333,226.132L85.333,226.132c-14.507,0-25.6,11.093-25.6,25.6v59.733h51.2v-59.733
		C110.933,237.227,99.84,226.132,85.333,226.132"/>
	<path style="fill:#D8A887;" d="M170.667,226.132L170.667,226.132c-14.507,0-25.6,11.093-25.6,25.6v59.733h51.2v-59.733
		C196.267,237.227,185.173,226.132,170.667,226.132"/>
	<path style="fill:#D8A887;" d="M256,226.132L256,226.132c-14.507,0-25.6,11.093-25.6,25.6v59.733h51.2v-59.733
		C281.6,237.227,270.507,226.132,256,226.132"/>
	<path style="fill:#D8A887;" d="M341.333,226.132L341.333,226.132c-14.507,0-25.6,11.093-25.6,25.6v59.733h51.2v-59.733
		C366.933,237.227,355.84,226.132,341.333,226.132"/>
	<path style="fill:#D8A887;" d="M426.667,226.132L426.667,226.132c-14.507,0-25.6,11.093-25.6,25.6v59.733h51.2v-59.733
		C452.267,237.227,441.173,226.132,426.667,226.132"/>
	<path style="fill:#D8A887;" d="M85.333,72.532L85.333,72.532c-14.507,0-25.6,11.093-25.6,25.6v59.733h51.2V98.132
		C110.933,83.626,99.84,72.532,85.333,72.532"/>
	<path style="fill:#D8A887;" d="M170.667,72.532L170.667,72.532c-14.507,0-25.6,11.093-25.6,25.6v59.733h51.2V98.132
		C196.267,83.626,185.173,72.532,170.667,72.532"/>
	<path style="fill:#D8A887;" d="M256,72.532L256,72.532c-14.507,0-25.6,11.093-25.6,25.6v59.733h51.2V98.132
		C281.6,83.626,270.507,72.532,256,72.532"/>
</g>
<g>
	<path style="fill:#DDB58A;" d="M486.4,345.599H25.6c-9.387,0-17.067-7.68-17.067-17.067l0,0c0-9.387,7.68-17.067,17.067-17.067
		h460.8c9.387,0,17.067,7.68,17.067,17.067l0,0C503.467,337.919,495.787,345.599,486.4,345.599"/>
	<path style="fill:#DDB58A;" d="M486.4,191.999H25.6c-9.387,0-17.067-7.68-17.067-17.067l0,0c0-9.387,7.68-17.067,17.067-17.067
		h460.8c9.387,0,17.067,7.68,17.067,17.067l0,0C503.467,184.32,495.787,191.999,486.4,191.999"/>
	<path style="fill:#DDB58A;" d="M503.467,473.599H8.533c-5.12,0-8.533-3.413-8.533-8.533s3.413-8.533,8.533-8.533h494.933
		c5.12,0,8.533,3.413,8.533,8.533C512,470.186,508.587,473.599,503.467,473.599"/>
</g>
</svg>